<?xml version="1.0" encoding="UTF-8" standalone="no"?>
<svg
   xmlns:dc="http://purl.org/dc/elements/1.1/"
   xmlns:cc="http://creativecommons.org/ns#"
   xmlns:rdf="http://www.w3.org/1999/02/22-rdf-syntax-ns#"
   xmlns:svg="http://www.w3.org/2000/svg"
   xmlns="http://www.w3.org/2000/svg"
   xmlns:sodipodi="http://sodipodi.sourceforge.net/DTD/sodipodi-0.dtd"
   xmlns:inkscape="http://www.inkscape.org/namespaces/inkscape"
   inkscape:version="1.0 (4035a4f, 2020-05-01)"
   sodipodi:docname="Logo Saint-Quentin - Aisne.svg"
   viewBox="0 0 699.99945 242.73597"
   height="242.73598"
   width="699.99945"
   xml:space="preserve"
   id="svg10"
   version="1.1"><metadata
     id="metadata16"><rdf:RDF><cc:Work
         rdf:about=""><dc:format>image/svg+xml</dc:format><dc:type
           rdf:resource="http://purl.org/dc/dcmitype/StillImage" /><dc:title></dc:title></cc:Work></rdf:RDF></metadata><defs
     id="defs14" /><sodipodi:namedview
     inkscape:current-layer="g18"
     inkscape:window-maximized="0"
     inkscape:window-y="0"
     inkscape:window-x="0"
     inkscape:cy="269.07878"
     inkscape:cx="131.86239"
     inkscape:zoom="1.0191355"
     showgrid="false"
     id="namedview12"
     inkscape:window-height="900"
     inkscape:window-width="1440"
     inkscape:pageshadow="2"
     inkscape:pageopacity="0"
     guidetolerance="10"
     gridtolerance="10"
     objecttolerance="10"
     borderopacity="1"
     bordercolor="#666666"
     pagecolor="#ffffff" /><g
     transform="matrix(1.3333333,0,0,-1.3333333,-264.98829,1379.8241)"
     inkscape:label="Logo"
     inkscape:groupmode="layer"
     id="g18"><g
       id="g8069"><path
         id="path5606"
         style="fill:#004878;fill-opacity:1;fill-rule:nonzero;stroke:none;stroke-width:2.80538"
         d="m 426.93854,987.18921 c -1.28767,4.6934 -5.07213,6.89002 -8.85659,6.89002 -3.78447,0 -6.28406,-1.59065 -6.28406,-4.166 0,-3.10275 5.29937,-4.61485 11.73211,-6.96296 7.87471,-2.87552 16.12534,-6.28125 16.12534,-16.42552 0,-9.68979 -8.32637,-16.57981 -20.66445,-16.57981 -11.05321,0 -18.92512,6.13256 -22.4094,16.04959 l 12.41663,3.32999 c 1.21192,-4.16318 5.45085,-7.8719 10.90171,-7.8719 4.08745,0 6.58424,1.96938 6.58424,4.39042 0,3.78447 -6.5113,5.37512 -14.08022,8.25064 -6.3598,2.42385 -13.70149,5.90533 -13.70149,15.2164 0,8.25063 8.32638,15.74382 19.83406,15.74382 10.14427,0 18.16766,-6.20552 20.66445,-14.5347 z" /><path
         id="path5610"
         style="fill:#004878;fill-opacity:1;fill-rule:nonzero;stroke:none;stroke-width:2.80538"
         d="m 473.7646,969.70409 -6.05682,13.39851 -0.75746,2.11807 -0.75745,-2.11807 -6.05402,-13.39851 z m 5.37231,-11.8836 h -24.37317 l -3.10276,-6.81428 h -14.15596 l 24.98194,52.98809 h 8.92953 l 24.98194,-52.98809 h -14.15596 z" /><path
         d="m 499.88524,1003.9946 h 12.71681 v -52.98811 h -12.71681 z"
         style="fill:#004878;fill-opacity:1;fill-rule:nonzero;stroke:none;stroke-width:2.80538"
         id="path5612" /><path
         id="path5616"
         style="fill:#004878;fill-opacity:1;fill-rule:nonzero;stroke:none;stroke-width:2.80538"
         d="m 566.34927,1003.9951 v -52.98805 h -11.95935 l -21.95493,28.31193 -1.05763,1.96658 0.15149,-1.96658 v -28.31193 h -12.71681 v 52.98805 h 11.95935 l 21.95493,-27.93317 1.05763,-1.96657 -0.15149,1.96657 v 27.93317 z" /><path
         id="path5620"
         style="fill:#004878;fill-opacity:1;fill-rule:nonzero;stroke:none;stroke-width:2.80538"
         d="M 615.86064,1003.9951 V 992.11153 H 599.7381 v -41.10448 h -12.71681 v 41.10448 h -15.8981 v 11.88357 z" /><path
         id="path5624"
         style="fill:#004878;fill-opacity:1;fill-rule:nonzero;stroke:none;stroke-width:2.80538"
         d="m 439.50413,909.95504 c 0,8.93234 -5.67809,14.98916 -14.30745,14.98916 -8.55361,0 -14.23171,-6.05682 -14.23171,-14.98916 0,-8.8566 5.6781,-14.98636 14.23171,-14.98636 8.62936,0 14.30745,6.12976 14.30745,14.98636 m -20.81875,-26.79703 c -12.03509,2.72684 -20.96743,13.17409 -20.96743,26.79703 0,15.97104 12.26514,27.55447 27.47873,27.55447 15.2164,0 27.55448,-11.58343 27.55448,-27.55447 0,-13.7015 -9.08384,-24.22168 -21.34897,-26.87277 v -9.61124 h -12.71681 z" /><path
         id="path5628"
         style="fill:#004878;fill-opacity:1;fill-rule:nonzero;stroke:none;stroke-width:2.80538"
         d="m 504.23106,936.4502 v -29.4453 c 0,-15.89811 -9.84128,-24.60322 -23.84576,-24.60322 -14.08022,0 -23.84295,8.70511 -23.84295,24.60322 v 29.4453 h 12.7168 v -29.89978 c 0,-7.57173 4.16319,-12.26513 11.12615,-12.26513 6.96577,0 11.12896,4.6934 11.12896,12.26513 v 29.89978 z" /><path
         id="path5632"
         style="fill:#004878;fill-opacity:1;fill-rule:nonzero;stroke:none;stroke-width:2.80538"
         d="m 548.4843,895.34628 v -11.8836 h -38.9836 v 52.98808 h 38.52913 V 924.56435 H 522.2175 v -8.7051 h 20.21279 V 904.43011 H 522.2175 v -9.08383 z" /><path
         id="path5636"
         style="fill:#004878;fill-opacity:1;fill-rule:nonzero;stroke:none;stroke-width:2.80538"
         d="m 601.74619,936.4502 v -52.98808 h -11.95935 l -21.95493,28.31193 -1.05763,1.96657 0.15149,-1.96657 v -28.31193 h -12.7168 v 52.98808 h 11.95935 l 21.95493,-27.9332 1.05763,-1.96658 -0.15149,1.96658 v 27.9332 z" /><path
         id="path5640"
         style="fill:#004878;fill-opacity:1;fill-rule:nonzero;stroke:none;stroke-width:2.80538"
         d="m 651.06539,936.4502 v -11.8836 h -16.12254 v -41.10448 h -12.7168 v 41.10448 h -15.89811 v 11.8836 z" /><path
         d="m 656.40039,936.44936 h 12.7168 v -52.98808 h -12.7168 z"
         style="fill:#004878;fill-opacity:1;fill-rule:nonzero;stroke:none;stroke-width:2.80538"
         id="path5642" /><path
         id="path5646"
         style="fill:#004878;fill-opacity:1;fill-rule:nonzero;stroke:none;stroke-width:2.80538"
         d="m 723.74081,936.4502 v -52.98808 h -11.95935 l -21.95493,28.31193 -1.05763,1.96657 0.15149,-1.96657 v -28.31193 h -12.7168 v 52.98808 h 11.95935 l 21.95213,-27.9332 1.06043,-1.96658 -0.15149,1.96658 v 27.9332 z" /></g><g
       id="g8230"><g
         id="g8091"><path
           d="m 264.45971,1004.4103 c 7.35011,0 13.32838,5.9811 13.32838,13.334 0,7.3529 -5.97827,13.3312 -13.32838,13.3312 -7.35291,0 -13.33399,-5.9783 -13.33399,-13.3312 0,-7.3529 5.98108,-13.334 13.33399,-13.334"
           style="fill:#80cff0;fill-opacity:1;fill-rule:nonzero;stroke:none;stroke-width:2.80538"
           id="path5986" /><path
           d="m 230.39142,990.37893 c 6.36822,-3.67506 14.53749,-1.48686 18.21255,4.87856 3.67505,6.36541 1.48685,14.53751 -4.88137,18.21251 -6.36542,3.6751 -14.53469,1.4841 -18.20694,-4.8813 -3.67786,-6.3682 -1.48966,-14.53192 4.87576,-18.20977"
           style="fill:#80cff0;fill-opacity:1;fill-rule:nonzero;stroke:none;stroke-width:2.80538"
           id="path5990" /><path
           d="m 230.39142,897.50643 c -6.36542,-3.67786 -8.55362,-11.84152 -4.87576,-18.20975 3.67225,-6.36541 11.84152,-8.55641 18.20694,-4.88136 6.36822,3.67786 8.55642,11.84713 4.88137,18.21535 -3.67506,6.36261 -11.84433,8.55081 -18.21255,4.87576"
           style="fill:#80cff0;fill-opacity:1;fill-rule:nonzero;stroke:none;stroke-width:2.80538"
           id="path5994" /><path
           d="m 264.45971,883.4753 c -7.3501,0 -13.33399,-5.98107 -13.33399,-13.33398 0,-7.35011 5.98108,-13.33119 13.33399,-13.33119 7.35011,0.003 13.32838,5.98108 13.33118,13.33119 0,7.35291 -5.98107,13.33398 -13.33118,13.33398"
           style="fill:#80cff0;fill-opacity:1;fill-rule:nonzero;stroke:none;stroke-width:2.80538"
           id="path5998" /><path
           d="m 371.55017,939.6691 c -6.36822,3.67505 -14.53749,1.48404 -18.21535,-4.87856 -3.67225,-6.36542 -1.48124,-14.5375 4.88417,-18.21255 6.36542,-3.67506 14.53189,-1.48405 18.20975,4.87856 3.67505,6.36822 1.48965,14.53749 -4.87857,18.21255"
           style="fill:#80cff0;fill-opacity:1;fill-rule:nonzero;stroke:none;stroke-width:2.80538"
           id="path6002" /><path
           d="m 358.21955,971.30989 c -6.36822,-3.67505 -8.55922,-11.84713 -4.88417,-18.21254 3.67505,-6.36542 11.84994,-8.55362 18.21536,-4.88137 6.36541,3.67786 8.5508,11.84713 4.87856,18.21255 -3.67786,6.36541 -11.84153,8.55361 -18.20975,4.88136"
           style="fill:#80cff0;fill-opacity:1;fill-rule:nonzero;stroke:none;stroke-width:2.80538"
           id="path6006" /></g><g
         id="g8151"><path
           d="m 282.67843,1025.2653 c 2.65109,0 4.80562,2.1545 4.80562,4.8 0,2.6483 -2.15453,4.8028 -4.80562,4.8028 -2.64828,0 -4.80281,-2.1545 -4.80281,-4.8028 0,-2.6455 2.15453,-4.8 4.80281,-4.8"
           style="fill:#e3136e;fill-opacity:1;fill-rule:nonzero;stroke:none;stroke-width:2.80538"
           id="path6058" /><path
           d="m 362.47251,979.19695 c 0.85284,-1.48124 2.4491,-2.40141 4.16319,-2.40141 0.83601,0 1.6636,0.22163 2.393,0.64243 2.29199,1.32695 3.08031,4.26699 1.76178,6.55899 -0.85565,1.48124 -2.45191,2.40421 -4.166,2.40421 -0.83881,0 -1.6664,-0.22443 -2.3958,-0.64523 -1.11373,-0.64244 -1.91046,-1.68043 -2.2415,-2.92321 -0.32823,-1.23718 -0.1571,-2.52765 0.48533,-3.63578"
           style="fill:#e3136e;fill-opacity:1;fill-rule:nonzero;stroke:none;stroke-width:2.80538"
           id="path6106" /><path
           d="m 214.8841,988.15061 c 0.7294,-0.42361 1.55979,-0.64524 2.3958,-0.64524 1.71128,0 3.30754,0.92017 4.16318,2.40141 1.32134,2.28919 0.53303,5.23204 -1.75897,6.55899 -0.7294,0.42081 -1.55979,0.64243 -2.3986,0.64243 -1.71129,0 -3.30475,-0.91736 -4.16039,-2.3986 -1.32133,-2.29481 -0.53302,-5.23765 1.75898,-6.55899"
           style="fill:#e3136e;fill-opacity:1;fill-rule:nonzero;stroke:none;stroke-width:2.80538"
           id="path6110" /><path
           d="m 282.67843,862.41894 c -2.64828,0 -4.80281,-2.15734 -4.80281,-4.80282 0,-2.64828 2.15453,-4.80001 4.80281,-4.80001 2.65109,0 4.80562,2.15173 4.80562,4.80001 0,2.64548 -2.15453,4.80282 -4.80562,4.80282"
           style="fill:#e3136e;fill-opacity:1;fill-rule:nonzero;stroke:none;stroke-width:2.80538"
           id="path6114" /><path
           d="m 369.0301,910.24203 c -0.7294,0.42361 -1.55699,0.64243 -2.39299,0.64243 -1.7169,0 -3.31316,-0.91736 -4.166,-2.40141 -0.63963,-1.11093 -0.81356,-2.40141 -0.48252,-3.63577 0.33103,-1.23998 1.12495,-2.27798 2.2415,-2.92041 0.7294,-0.42361 1.55698,-0.64524 2.39299,-0.64524 1.71409,0 3.31035,0.91736 4.16599,2.39861 1.32414,2.29199 0.53303,5.23765 -1.75897,6.56179"
           style="fill:#e3136e;fill-opacity:1;fill-rule:nonzero;stroke:none;stroke-width:2.80538"
           id="path6118" /><path
           d="m 217.27877,900.178 c -0.836,0 -1.66639,-0.22444 -2.39579,-0.64524 -2.292,-1.32414 -3.08031,-4.26699 -1.75617,-6.55899 0.85283,-1.48124 2.4491,-2.40421 4.16038,-2.40421 0.836,0 1.6664,0.22443 2.3958,0.64524 2.292,1.32414 3.08031,4.26418 1.75897,6.55898 -0.85564,1.48405 -2.4491,2.40422 -4.16319,2.40422"
           style="fill:#e3136e;fill-opacity:1;fill-rule:nonzero;stroke:none;stroke-width:2.80538"
           id="path6122" /><path
           d="m 291.38129,979.40567 c 0,2.16576 -1.76458,3.92754 -3.93314,3.92754 -2.16015,0 -3.91632,-1.76178 -3.91632,-3.92754 0,-2.16576 1.75617,-3.92754 3.91632,-3.92754 2.16856,0 3.93314,1.76178 3.93314,3.92754"
           style="fill:#e3136e;fill-opacity:1;fill-rule:nonzero;stroke:none;stroke-width:2.80538"
           id="path6174" /><path
           d="m 320.37521,956.47222 c 0.68451,0 1.36342,0.18235 1.95816,0.52461 1.87119,1.08568 2.51923,3.49551 1.43916,5.3667 -0.70135,1.21473 -2.00585,1.96657 -3.40293,1.96657 -0.68451,0 -1.36342,-0.18515 -1.96096,-0.53022 -1.874,-1.08287 -2.52204,-3.48989 -1.44758,-5.36108 0.70696,-1.21474 2.01427,-1.96658 3.41415,-1.96658"
           style="fill:#e3136e;fill-opacity:1;fill-rule:nonzero;stroke:none;stroke-width:2.80538"
           id="path6178" /><path
           d="m 260.73528,966.24842 c -0.59754,0.34506 -1.27644,0.52741 -1.96657,0.52741 -1.39989,0 -2.70158,-0.75184 -3.40012,-1.96376 -1.08008,-1.874 -0.43484,-4.28102 1.43916,-5.36951 0.59754,-0.34226 1.27364,-0.52461 1.95816,-0.52461 1.40269,0 2.70719,0.75185 3.40573,1.96377 1.08007,1.874 0.43764,4.28102 -1.43636,5.3667"
           style="fill:#e3136e;fill-opacity:1;fill-rule:nonzero;stroke:none;stroke-width:2.80538"
           id="path6182" /><path
           d="m 287.44702,904.35128 c 2.17137,0 3.93315,1.75898 3.93315,3.92193 0,2.16856 -1.76178,3.93034 -3.93315,3.93034 -2.15734,0 -3.91631,-1.76178 -3.91631,-3.93034 0,-2.16295 1.75897,-3.92193 3.91631,-3.92193"
           style="fill:#e3136e;fill-opacity:1;fill-rule:nonzero;stroke:none;stroke-width:2.80538"
           id="path6186" /><path
           d="m 322.33533,930.68037 c -0.59754,0.34506 -1.27645,0.52741 -1.96096,0.52741 -1.39989,0 -2.7072,-0.75465 -3.41135,-1.96657 -1.08007,-1.87119 -0.43203,-4.27541 1.44197,-5.36109 0.60035,-0.34226 1.27926,-0.52461 1.96377,-0.52461 1.39708,0 2.70439,0.75184 3.40293,1.95816 1.08288,1.8768 0.43764,4.28382 -1.43636,5.3667"
           style="fill:#e3136e;fill-opacity:1;fill-rule:nonzero;stroke:none;stroke-width:2.80538"
           id="path6190" /><path
           d="m 255.36803,922.87439 c 0.69854,-1.21473 2.00304,-1.96658 3.40573,-1.96658 0.68451,0 1.36342,0.18516 1.95816,0.52742 1.87399,1.08849 2.51923,3.4955 1.44197,5.3695 -0.69855,1.21193 -2.00585,1.96377 -3.40574,1.96377 -0.68732,0 -1.36342,-0.18235 -1.96096,-0.52741 -1.874,-1.08569 -2.51924,-3.49271 -1.43916,-5.3667"
           style="fill:#e3136e;fill-opacity:1;fill-rule:nonzero;stroke:none;stroke-width:2.80538"
           id="path6194" /></g><g
         id="g8137"><path
           d="m 301.33423,1019.25 c 0.40959,-1.1699 1.11374,-1.8319 1.93011,-1.8291 0.62279,0 1.3045,0.3983 1.91607,1.1109 l 8.36285,9.7655 c 0.70976,0.8304 0.97066,1.658 0.73221,2.3313 -0.23846,0.6733 -0.96506,1.1558 -2.03952,1.3578 l -12.62983,2.3621 c -0.28335,0.05 -0.55547,0.076 -0.80515,0.076 -0.76867,0 -1.34658,-0.2497 -1.67201,-0.7182 -0.38714,-0.547 -0.41239,-1.3774 -0.0729,-2.3369 z"
           style="fill:#004878;fill-opacity:1;fill-rule:nonzero;stroke:none;stroke-width:2.80538"
           id="path6126" /><path
           d="m 203.37754,964.69256 12.63544,2.35932 c 0.92298,0.17113 1.60749,0.56669 1.92169,1.10532 0.41239,0.70416 0.18796,1.64676 -0.61999,2.58657 l -8.35723,9.76273 c -0.66208,0.77429 -1.39147,1.16704 -2.05635,1.10813 -0.56949,-0.0505 -1.07166,-0.42922 -1.4588,-1.0913 -0.12624,-0.21601 -0.24126,-0.46288 -0.33665,-0.73501 l -4.26979,-12.11925 c -0.3647,-1.03238 -0.30859,-1.89925 0.1571,-2.4463 0.46289,-0.54144 1.31012,-0.7294 2.38458,-0.53021"
           style="fill:#004878;fill-opacity:1;fill-rule:nonzero;stroke:none;stroke-width:2.80538"
           id="path6130" /><path
           d="m 217.93495,919.72983 c -0.3142,0.53864 -0.99871,0.93139 -1.92168,1.10252 l -12.63545,2.36213 c -1.07446,0.19919 -1.92169,0.0112 -2.38458,-0.53302 -0.46569,-0.54144 -0.5218,-1.41111 -0.1571,-2.44349 l 4.26979,-12.11926 c 0.0982,-0.26931 0.21041,-0.51899 0.33665,-0.73781 0.38714,-0.66207 0.88931,-1.03799 1.4588,-1.08849 0.66488,-0.0589 1.39428,0.33384 2.05915,1.10813 l 8.35443,9.76554 c 0.80795,0.9398 1.03238,1.8796 0.61999,2.58375"
           style="fill:#004878;fill-opacity:1;fill-rule:nonzero;stroke:none;stroke-width:2.80538"
           id="path6134" /><path
           d="m 305.18041,869.35272 c -0.60877,0.71538 -1.29328,1.11093 -1.91607,1.11374 -0.81637,0.006 -1.51772,-0.66207 -1.93011,-1.83192 l -4.27821,-12.11925 c -0.33945,-0.95944 -0.3142,-1.78984 0.0701,-2.33408 0.32823,-0.46569 0.90614,-0.71537 1.67481,-0.71818 0.24968,-0.003 0.5218,0.0253 0.80515,0.0757 l 12.62703,2.36213 c 1.07726,0.19918 1.80386,0.68171 2.04232,1.3578 0.23845,0.6733 -0.0224,1.50089 -0.73221,2.33128 z"
           style="fill:#004878;fill-opacity:1;fill-rule:nonzero;stroke:none;stroke-width:2.80538"
           id="path6138" /><path
           d="m 360.38475,893.08038 -12.63545,2.35371 c -1.21473,0.22724 -2.14331,-0.0449 -2.54729,-0.75465 -0.31139,-0.54144 -0.30859,-1.33255 0.006,-2.21905 l 4.2726,-12.11926 c 0.3647,-1.03238 0.95103,-1.67201 1.65237,-1.80106 0.70415,-0.13185 1.48405,0.25529 2.19662,1.08849 l 8.36004,9.75432 c 0.18516,0.22163 0.34506,0.44325 0.4685,0.66207 0.38153,0.66207 0.45728,1.29048 0.21601,1.80667 -0.28053,0.60596 -0.98468,1.04079 -1.98901,1.22876"
           style="fill:#004878;fill-opacity:1;fill-rule:nonzero;stroke:none;stroke-width:2.80538"
           id="path6142" /><path
           d="m 345.20061,993.20731 c 0.40678,-0.70695 1.33256,-0.98468 2.55009,-0.75745 l 12.63265,2.35652 c 1.00432,0.18516 1.70847,0.6228 1.98901,1.22876 0.24407,0.519 0.16833,1.14179 -0.21321,1.80947 -0.12624,0.21882 -0.28334,0.43764 -0.4685,0.65927 l -8.36004,9.75432 c -0.71257,0.8332 -1.49527,1.2203 -2.19661,1.0885 -0.70416,-0.1291 -1.28767,-0.7687 -1.65237,-1.7983 l -4.27541,-12.12483 c -0.3142,-0.8865 -0.3142,-1.67482 -0.006,-2.21626"
           style="fill:#004878;fill-opacity:1;fill-rule:nonzero;stroke:none;stroke-width:2.80538"
           id="path6146" /><path
           d="m 284.328,957.10512 c -0.13185,-0.22724 -0.0757,-0.59475 0.1571,-1.00433 l 3.49831,-6.17184 c 0.23285,-0.40959 0.5218,-0.64524 0.78551,-0.64524 0.26371,0 0.54986,0.23284 0.78831,0.63682 l 3.5937,6.12135 c 0.23565,0.40678 0.30018,0.77148 0.16832,0.99871 -0.12905,0.23004 -0.47691,0.3647 -0.94822,0.37031 l -7.11445,0.0449 c -0.46008,0 -0.79953,-0.12905 -0.92858,-0.35067"
           style="fill:#004878;fill-opacity:1;fill-rule:nonzero;stroke:none;stroke-width:2.80538"
           id="path6150" /><path
           d="m 284.02586,947.64536 -3.5937,6.11574 c -0.23846,0.40397 -0.52741,0.63963 -0.79112,0.63682 -0.25809,0 -0.54143,-0.23004 -0.77148,-0.6284 l -3.51514,-6.18588 c -0.23285,-0.40958 -0.29176,-0.77709 -0.1543,-1.00432 0.13186,-0.22443 0.47972,-0.35348 0.95103,-0.35348 l 7.09762,0.0505 c 0.4685,0 0.81075,0.13746 0.94261,0.3647 0.13185,0.23284 0.0729,0.59754 -0.16552,1.00432"
           style="fill:#004878;fill-opacity:1;fill-rule:nonzero;stroke:none;stroke-width:2.80538"
           id="path6154" /><path
           d="m 283.24793,941.60902 -7.09762,0.0505 c -0.47131,0 -0.81918,-0.12625 -0.95103,-0.35348 -0.13466,-0.22724 -0.0786,-0.59474 0.1543,-1.00433 l 3.51795,-6.18306 c 0.23004,-0.40117 0.51058,-0.63122 0.76867,-0.63122 0.26371,-0.003 0.55266,0.23285 0.79112,0.63683 l 3.5937,6.11573 c 0.24126,0.40678 0.30017,0.77429 0.16832,1.00433 -0.13185,0.23004 -0.47692,0.35909 -0.94541,0.3647"
           style="fill:#004878;fill-opacity:1;fill-rule:nonzero;stroke:none;stroke-width:2.80538"
           id="path6158" /><path
           d="m 293.31897,930.84448 c 0.12905,0.22724 0.0673,0.59194 -0.16832,1.00152 l -3.5937,6.11855 c -0.23846,0.40397 -0.5246,0.63962 -0.78831,0.63682 -0.26651,0 -0.54986,-0.23565 -0.78551,-0.64524 l -3.49831,-6.17184 c -0.23285,-0.40959 -0.28896,-0.77429 -0.1571,-1.00433 0.12905,-0.22443 0.4685,-0.35348 0.93139,-0.35067 l 7.11445,0.0477 c 0.4713,0.003 0.81636,0.13466 0.94541,0.3675"
           style="fill:#004878;fill-opacity:1;fill-rule:nonzero;stroke:none;stroke-width:2.80538"
           id="path6162" /><path
           d="m 297.10456,934.12734 c 0.23284,-0.40678 0.5218,-0.64524 0.77989,-0.64524 0.26651,-0.003 0.55547,0.22724 0.79393,0.63683 l 3.5993,6.13537 c 0.23004,0.39836 0.28896,0.75745 0.1571,0.98188 -0.12904,0.23005 -0.47411,0.3619 -0.94541,0.3647 l -7.09481,0.0561 c -0.47131,0.003 -0.81637,-0.12624 -0.95103,-0.35628 -0.13185,-0.22724 -0.0757,-0.59474 0.1543,-1.00152 z"
           style="fill:#004878;fill-opacity:1;fill-rule:nonzero;stroke:none;stroke-width:2.80538"
           id="path6166" /><path
           d="m 302.276,947.63134 -3.59931,6.13537 c -0.23565,0.40678 -0.5246,0.63963 -0.78831,0.63682 -0.26371,0 -0.54986,-0.23846 -0.78551,-0.64804 l -3.50112,-6.16904 c -0.23004,-0.40959 -0.28895,-0.77429 -0.1571,-1.00152 0.13186,-0.22724 0.47972,-0.35909 0.95103,-0.35629 l 7.09481,0.0561 c 0.47131,0.003 0.81637,0.13466 0.94542,0.3647 0.13185,0.22163 0.0729,0.58072 -0.15991,0.98189"
           style="fill:#004878;fill-opacity:1;fill-rule:nonzero;stroke:none;stroke-width:2.80538"
           id="path6170" /><path
           d="m 270.84981,979.56502 11.44877,6.60948 c -10.25648,10.27612 -22.55247,12.64386 -22.55247,12.64386 z"
           style="fill:#004878;fill-opacity:1;fill-rule:nonzero;stroke:none;stroke-width:2.80538"
           id="path6198" /><path
           d="m 255.47828,970.69103 11.44877,6.60948 -11.11774,19.24493 c 0,0 -4.10147,-11.83311 -0.33103,-25.85441"
           style="fill:#004878;fill-opacity:1;fill-rule:nonzero;stroke:none;stroke-width:2.80538"
           id="path6202" /><path
           d="m 266.92733,910.58428 -11.44877,6.60949 c -3.77044,-14.02131 0.32823,-25.85161 0.32823,-25.85161 z"
           style="fill:#004878;fill-opacity:1;fill-rule:nonzero;stroke:none;stroke-width:2.80538"
           id="path6206" /><path
           d="m 270.84981,908.31838 -11.1037,-19.25054 c 0,0 12.29319,2.36774 22.55247,12.64105 z"
           style="fill:#004878;fill-opacity:1;fill-rule:nonzero;stroke:none;stroke-width:2.80538"
           id="path6210" /><path
           d="m 328.62697,928.45682 c 14.02972,3.74799 22.22424,13.21336 22.22424,13.21336 h -22.22424 z"
           style="fill:#004878;fill-opacity:1;fill-rule:nonzero;stroke:none;stroke-width:2.80538"
           id="path6214" /><path
           d="m 328.62697,959.42713 0.003,-13.22177 h 22.22144 c 0,0 -8.19452,9.46256 -22.22424,13.21055"
           style="fill:#004878;fill-opacity:1;fill-rule:nonzero;stroke:none;stroke-width:2.80538"
           id="path6218" /></g><g
         id="g8083"><path
           d="m 327.25036,971.73379 c -0.23284,0 -0.44605,-0.12344 -0.55266,-0.32823 l -1.05763,-1.93011 c -0.16271,-0.30017 -0.0449,-0.69012 0.26091,-0.85844 l 18.44259,-10.3154 c 0.0926,-0.0505 0.19076,-0.0757 0.29456,-0.0757 0.23285,0 0.44045,0.12343 0.55266,0.32823 l 1.06044,1.9301 c 0.16551,0.30298 0.0477,0.68451 -0.26371,0.85845 l -18.43978,10.31539 c -0.0898,0.0505 -0.19077,0.0757 -0.29738,0.0757"
           style="fill:#009de0;fill-opacity:1;fill-rule:nonzero;stroke:none;stroke-width:2.80538"
           id="path6062" /><path
           d="m 293.42698,991.35604 -18.15364,10.81196 c -0.30298,0.1823 -0.69573,0.093 -0.87528,-0.202 l -1.14179,-1.8852 c -0.12063,-0.19639 -0.12343,-0.44046 -0.006,-0.63964 0.0505,-0.0898 0.12344,-0.16272 0.21041,-0.21602 l 18.15644,-10.81475 c 0.29737,-0.17954 0.69293,-0.087 0.87247,0.20199 l 1.1446,1.88241 c 0.12063,0.19357 0.12343,0.44044 0.006,0.63963 -0.0505,0.0926 -0.12344,0.16832 -0.21321,0.22162"
           style="fill:#009de0;fill-opacity:1;fill-rule:nonzero;stroke:none;stroke-width:2.80538"
           id="path6070" /><path
           d="m 246.0679,963.03093 2.20222,0.0505 c 0.33946,0 0.61999,0.30579 0.61158,0.65366 l -0.28615,21.13295 c -0.003,0.1038 -0.0309,0.20199 -0.0842,0.29176 -0.11502,0.19918 -0.32543,0.32262 -0.56108,0.3114 l -2.19942,-0.0421 c -0.34506,0 -0.61718,-0.30298 -0.61157,-0.65927 l 0.28615,-21.12734 c 0.003,-0.1038 0.0309,-0.20479 0.0842,-0.29456 0.11502,-0.20199 0.32823,-0.32543 0.55827,-0.31701"
           style="fill:#009de0;fill-opacity:1;fill-rule:nonzero;stroke:none;stroke-width:2.80538"
           id="path6078" /><path
           d="m 246.06902,924.85471 c -0.22724,0.008 -0.44325,-0.11502 -0.55827,-0.31701 -0.0561,-0.0898 -0.0814,-0.19077 -0.0842,-0.29456 l -0.28615,-21.12735 c -0.008,-0.35628 0.26651,-0.64804 0.61157,-0.65926 l 2.20223,-0.0421 c 0.23285,-0.0112 0.44325,0.11221 0.55827,0.31139 0.0533,0.0898 0.0786,0.18797 0.0814,0.29176 l 0.28895,21.13296 c 0.006,0.34787 -0.27212,0.64243 -0.61157,0.65365 z"
           style="fill:#009de0;fill-opacity:1;fill-rule:nonzero;stroke:none;stroke-width:2.80538"
           id="path6086" /><path
           d="m 274.39862,885.91935 c 0.17955,-0.29176 0.5723,-0.38433 0.87528,-0.20198 l 18.15364,10.81194 c 0.0898,0.0533 0.15991,0.12905 0.21321,0.21882 0.11783,0.20199 0.11783,0.44606 -0.006,0.64524 l -1.1446,1.87961 c -0.17674,0.29176 -0.5723,0.38434 -0.87247,0.20199 l -18.15644,-10.81476 c -0.087,-0.0533 -0.15991,-0.12624 -0.21321,-0.21601 -0.11502,-0.20199 -0.11502,-0.44325 0.0112,-0.64243 z"
           style="fill:#009de0;fill-opacity:1;fill-rule:nonzero;stroke:none;stroke-width:2.80538"
           id="path6094" /><path
           d="m 327.24924,916.15409 c 0.10661,0 0.2076,0.0253 0.29737,0.0729 L 345.9864,926.548 c 0.3142,0.17113 0.42922,0.55266 0.26651,0.85564 l -1.06324,1.93291 c -0.10941,0.20199 -0.31981,0.32542 -0.54986,0.32542 -0.1066,0 -0.20479,-0.0252 -0.29456,-0.0729 l -18.4454,-10.321 c -0.30298,-0.16552 -0.4208,-0.55827 -0.25809,-0.85564 l 1.05482,-1.93291 c 0.10661,-0.20199 0.31982,-0.32543 0.55266,-0.32543"
           style="fill:#009de0;fill-opacity:1;fill-rule:nonzero;stroke:none;stroke-width:2.80538"
           id="path6102" /><path
           d="m 318.74079,917.76859 c -4.02011,2.32286 -8.69107,2.51643 -12.71119,0.95103 l 14.53469,-25.17832 c 1.39428,1.11093 2.61743,2.48557 3.56004,4.12111 4.05939,7.03029 1.64395,16.0496 -5.38354,20.10618"
           style="fill:#009de0;fill-opacity:1;fill-rule:nonzero;stroke:none;stroke-width:2.80538"
           id="path6222" /><path
           d="m 302.04568,916.38357 c -1.33256,-1.09129 -2.5024,-2.42385 -3.41415,-4.00047 -4.05659,-7.02749 -1.63554,-16.0496 5.39194,-20.10899 3.9612,-2.28358 8.55362,-2.51363 12.53165,-1.02116 z"
           style="fill:#009de0;fill-opacity:1;fill-rule:nonzero;stroke:none;stroke-width:2.80538"
           id="path6226" /><path
           d="m 325.94165,982.93344 c 0.006,4.64291 -2.15453,8.78646 -5.51819,11.49085 L 305.8523,969.26561 c 1.66079,-0.65085 3.46185,-1.02396 5.34987,-1.02677 8.11597,0 14.73107,6.58143 14.73948,14.6946"
           style="fill:#009de0;fill-opacity:1;fill-rule:nonzero;stroke:none;stroke-width:2.80538"
           id="path6230" /><path
           d="m 316.41345,996.71264 c -1.61029,0.60877 -3.34963,0.96225 -5.17032,0.96505 -8.11598,0 -14.72827,-6.58704 -14.73949,-14.70582 -0.006,-4.57277 2.08721,-8.66583 5.3639,-11.37302 z"
           style="fill:#009de0;fill-opacity:1;fill-rule:nonzero;stroke:none;stroke-width:2.80538"
           id="path6234" /><path
           d="m 236.41373,956.58135 c -4.0145,-2.33127 -6.50849,-6.28406 -7.15372,-10.55105 l 29.07499,0.0729 c -0.27212,1.76178 -0.85564,3.50673 -1.80386,5.13947 -4.07342,7.01907 -13.10114,9.41486 -20.11741,5.33864"
           style="fill:#009de0;fill-opacity:1;fill-rule:nonzero;stroke:none;stroke-width:2.80538"
           id="path6238" /><path
           d="m 229.30293,941.41236 c 0.28334,-1.70006 0.85564,-3.37768 1.77019,-4.9515 4.07623,-7.01907 13.10395,-9.41206 20.12302,-5.33584 3.95559,2.29761 6.43835,6.16623 7.12567,10.36028 z"
           style="fill:#009de0;fill-opacity:1;fill-rule:nonzero;stroke:none;stroke-width:2.80538"
           id="path6242" /></g><g
         id="g8117"
         style="fill:#b1b2b4;fill-opacity:1"><path
           d="m 288.76022,967.44127 4.41287,-5.27973 c 0.0168,-0.028 0.0421,-0.028 0.0561,-0.028 h 0.0561 l 5.27131,4.41286 c 0.0337,0.0281 0.0365,0.0898 0.014,0.11783 l -4.52508,5.28815 z"
           style="fill:#b1b2b4;fill-opacity:1;fill-rule:nonzero;stroke:none;stroke-width:2.80538"
           id="path5982" /><path
           d="m 308.28541,1006.7559 c 0.12905,-0.4741 0.43203,-0.8668 0.85284,-1.1081 l 9.2746,-5.3443 13.22177,22.9088 -9.28582,5.3499 c -0.27493,0.1599 -0.59194,0.244 -0.91175,0.244 -0.65927,0 -1.27084,-0.3535 -1.59626,-0.9201 l -11.37303,-19.7331 c -0.24687,-0.4236 -0.3114,-0.9202 -0.18235,-1.3971"
           style="fill:#b1b2b4;fill-opacity:1;fill-rule:nonzero;stroke:none;stroke-width:2.80538"
           id="path6010" /><path
           d="m 309.44628,955.6076 1.11935,6.876 -6.87039,1.11654 -1.11654,-6.86758 c 0,0 6.78622,-1.18948 6.79183,-1.18948 z"
           style="fill:#b1b2b4;fill-opacity:1;fill-rule:nonzero;stroke:none;stroke-width:2.80538"
           id="path6014" /><path
           d="m 332.2532,992.30061 c 0.27774,-0.1599 0.59475,-0.24687 0.91456,-0.24687 0.65646,0 1.26523,0.35067 1.59065,0.91456 l 11.40669,19.7218 c 0.24407,0.4237 0.30859,0.9174 0.18235,1.3915 -0.12905,0.4769 -0.42922,0.8725 -0.85003,1.1166 l -9.2774,5.3667 -13.23019,-22.906 z"
           style="fill:#b1b2b4;fill-opacity:1;fill-rule:nonzero;stroke:none;stroke-width:2.80538"
           id="path6018" /><path
           d="m 357.28929,978.17326 -0.90053,7.26875 c -0.22724,1.85156 -1.80947,3.24864 -3.67505,3.24864 -0.14869,0 -0.29737,0 -0.44886,-0.0281 l -16.66118,-2.05073 c -2.02268,-0.25529 -3.46745,-2.10404 -3.22058,-4.12672 l 0.89212,-7.26594 c 0.23284,-1.85156 1.81227,-3.25144 3.67785,-3.25144 0.14869,0 0.29737,0 0.44606,0.0281 l 16.67239,2.05635 c 2.01988,0.24687 3.46465,2.09842 3.21778,4.1211"
           style="fill:#b1b2b4;fill-opacity:1;fill-rule:nonzero;stroke:none;stroke-width:2.80538"
           id="path6022" /><path
           d="m 264.22434,946.86519 c 0.0168,-0.0421 0.0617,-0.0673 0.0926,-0.0645 l 6.52813,2.47155 -2.46594,6.50848 -6.50849,-2.46593 z"
           style="fill:#b1b2b4;fill-opacity:1;fill-rule:nonzero;stroke:none;stroke-width:2.80538"
           id="path6026" /><path
           d="m 225.20118,957.18451 c 0,1.01555 -0.82198,1.83752 -1.83192,1.83752 l -22.78252,0.0281 c -1.01274,0 -1.83752,-0.82198 -1.83752,-1.82911 l -0.008,-10.72779 h 26.45477 z"
           style="fill:#b1b2b4;fill-opacity:1;fill-rule:nonzero;stroke:none;stroke-width:2.80538"
           id="path6030" /><path
           d="m 294.1028,915.6971 0.0505,0.0252 4.41007,5.27132 c 0.0281,0.0337 0.0252,0.0982 -0.003,0.12063 l -5.38914,4.40165 -4.40445,-5.38634 5.27412,-4.41567 c 0.0196,-0.0168 0.0449,-0.0196 0.0617,-0.0168"
           style="fill:#b1b2b4;fill-opacity:1;fill-rule:nonzero;stroke:none;stroke-width:2.80538"
           id="path6034" /><path
           d="m 309.13825,882.0367 c -0.42361,-0.24407 -0.7266,-0.63962 -0.85284,-1.11654 -0.12624,-0.4713 -0.0645,-0.96505 0.18235,-1.38586 l 11.37303,-19.74148 c 0.32542,-0.56669 0.9398,-0.92017 1.59906,-0.92017 0.31982,0 0.63402,0.087 0.90895,0.24407 l 9.28582,5.35548 -13.22177,22.90595 z"
           style="fill:#b1b2b4;fill-opacity:1;fill-rule:nonzero;stroke:none;stroke-width:2.80538"
           id="path6038" /><path
           d="m 302.51754,930.86075 1.18107,-6.775 c 0.008,-0.0477 0.0421,-0.0701 0.0701,-0.0729 l 6.86478,1.27645 -1.27645,6.84233 z"
           style="fill:#b1b2b4;fill-opacity:1;fill-rule:nonzero;stroke:none;stroke-width:2.80538"
           id="path6042" /><path
           d="m 334.75448,894.71114 c -0.32261,0.56389 -0.92858,0.91456 -1.58784,0.91456 -0.32262,0 -0.63682,-0.0842 -0.91456,-0.24407 l -9.26337,-5.35548 13.23018,-22.91437 9.27741,5.3667 c 0.87528,0.50778 1.17265,1.63554 0.67048,2.51082 z"
           style="fill:#b1b2b4;fill-opacity:1;fill-rule:nonzero;stroke:none;stroke-width:2.80538"
           id="path6046" /><path
           d="m 268.48431,931.94588 2.31725,6.5674 -6.57021,2.31444 -2.31444,-6.5646 c 0,0 6.47763,-2.36493 6.48324,-2.36774 z"
           style="fill:#b1b2b4;fill-opacity:1;fill-rule:nonzero;stroke:none;stroke-width:2.80538"
           id="path6050" /><path
           d="m 224.66451,929.20165 c 0.34506,0.34787 0.53582,0.80795 0.53582,1.29889 l -0.006,10.69974 h -26.45196 l 0.008,-10.72499 c 0,-1.00993 0.82198,-1.83472 1.83472,-1.83472 l 22.79374,0.0253 c 0.48253,0 0.9398,0.18796 1.28487,0.53583"
           style="fill:#b1b2b4;fill-opacity:1;fill-rule:nonzero;stroke:none;stroke-width:2.80538"
           id="path6054" /><path
           d="m 282.23799,1015.5219 6.55618,-15.4633 c 0.0589,-0.13744 0.12344,-0.27491 0.19918,-0.40395 0.93139,-1.6131 2.93443,-2.28078 4.65413,-1.55419 l 6.73853,2.85874 c 1.8768,0.7967 2.75489,2.9737 1.96097,4.8505 l -6.55057,15.452 c -0.0589,0.1431 -0.12905,0.2777 -0.20199,0.4068 -0.93419,1.6159 -2.93163,2.2836 -4.65133,1.557 l -6.74414,-2.8531 c -1.8768,-0.7995 -2.75489,-2.9765 -1.96096,-4.8505"
           style="fill:#b1b2b4;fill-opacity:1;fill-rule:nonzero;stroke:none;stroke-width:2.80538"
           id="path6066" /><path
           d="m 233.62995,962.41711 5.84642,4.40726 c 1.48966,1.12496 1.91047,3.19252 0.97627,4.80562 -0.0729,0.12905 -0.1571,0.25529 -0.24687,0.37592 l -10.11341,13.40973 c -1.22595,1.62432 -3.55161,1.94974 -5.18154,0.7266 l -5.84361,-4.41568 c -1.48966,-1.12496 -1.90767,-3.18691 -0.97628,-4.80562 0.0758,-0.12905 0.1571,-0.25529 0.24968,-0.37592 l 10.1078,-13.40132 c 1.22876,-1.62712 3.55161,-1.95254 5.18154,-0.72659"
           style="fill:#b1b2b4;fill-opacity:1;fill-rule:nonzero;stroke:none;stroke-width:2.80538"
           id="path6074" /><path
           d="m 218.09177,910.96385 c -0.93138,-1.6187 -0.51338,-3.68066 0.97628,-4.80562 l 5.84361,-4.41567 c 1.62993,-1.22595 3.95279,-0.89773 5.17874,0.72659 l 10.11621,13.40973 c 0.0898,0.12064 0.17393,0.24407 0.24968,0.37593 0.92858,1.6159 0.50777,3.68066 -0.97908,4.80562 l -5.84642,4.40726 c -1.62993,1.22875 -3.95559,0.90052 -5.18154,-0.7266 l -10.1078,-13.40132 c -0.0926,-0.12063 -0.17393,-0.24967 -0.24968,-0.37592"
           style="fill:#b1b2b4;fill-opacity:1;fill-rule:nonzero;stroke:none;stroke-width:2.80538"
           id="path6082" /><path
           d="m 300.38629,886.92677 -6.73853,2.85868 c -1.7197,0.7294 -3.71994,0.0589 -4.65132,-1.55699 -0.0758,-0.12624 -0.14308,-0.2637 -0.20199,-0.40117 l -6.55618,-15.46327 c -0.79393,-1.87399 0.087,-4.05097 1.96096,-4.8477 l 6.74695,-2.85588 c 1.71689,-0.7266 3.71713,-0.0561 4.64852,1.55699 0.0729,0.12904 0.14307,0.2637 0.20199,0.40397 l 6.55057,15.45486 c 0.79392,1.8768 -0.0842,4.05378 -1.96097,4.85051"
           style="fill:#b1b2b4;fill-opacity:1;fill-rule:nonzero;stroke:none;stroke-width:2.80538"
           id="path6090" /><path
           d="m 335.60395,901.27686 16.65837,-2.05354 c 0.1543,-0.0196 0.30579,-0.0252 0.45447,-0.0252 1.86278,0 3.44221,1.39428 3.67225,3.24864 l 0.90053,7.26594 c 0.24687,2.02549 -1.1979,3.87704 -3.21778,4.12392 l -16.67239,2.05354 c -0.14588,0.0168 -0.29737,0.028 -0.44606,0.028 -1.86558,0 -3.44501,-1.39708 -3.67505,-3.24863 l -0.89211,-7.26595 c -0.25248,-2.02829 1.19509,-3.87704 3.21777,-4.12672"
           style="fill:#b1b2b4;fill-opacity:1;fill-rule:nonzero;stroke:none;stroke-width:2.80538"
           id="path6098" /><path
           d="m 265.84697,966.97698 c 0,-5.39195 4.37079,-9.76554 9.76274,-9.76554 0.91736,0 1.80386,0.13746 2.64828,0.37312 l -9.45975,16.38063 c -1.81789,-1.773 -2.95127,-4.24735 -2.95127,-6.98821"
           style="fill:#b1b2b4;fill-opacity:1;fill-rule:nonzero;stroke:none;stroke-width:2.80538"
           id="path6246" /><path
           d="m 282.27642,959.8572 c 1.90205,1.78142 3.09714,4.30907 3.09714,7.12006 0,5.39195 -4.37078,9.76273 -9.76273,9.76273 -0.98749,0 -1.94132,-0.15149 -2.83624,-0.42361 z"
           style="fill:#b1b2b4;fill-opacity:1;fill-rule:nonzero;stroke:none;stroke-width:2.80538"
           id="path6250" /><path
           d="m 270.57797,929.46087 c -4.67377,-2.69036 -6.27845,-8.66303 -3.58808,-13.33399 0.46008,-0.79392 1.01835,-1.49527 1.64395,-2.10684 l 9.47378,16.36941 c -2.44629,0.69293 -5.15349,0.44045 -7.52965,-0.92858"
           style="fill:#b1b2b4;fill-opacity:1;fill-rule:nonzero;stroke:none;stroke-width:2.80538"
           id="path6254" /><path
           d="m 272.60907,911.66913 c 2.49118,-0.76026 5.27973,-0.53022 7.7148,0.86967 4.67377,2.69316 6.27845,8.66021 3.58528,13.33398 -0.49094,0.85564 -1.0969,1.60468 -1.78141,2.24711 z"
           style="fill:#b1b2b4;fill-opacity:1;fill-rule:nonzero;stroke:none;stroke-width:2.80538"
           id="path6258" /><path
           d="m 320.24168,952.40217 c -4.67097,2.69317 -10.64363,1.0913 -13.33399,-3.57967 -0.46009,-0.79673 -0.78551,-1.63273 -1.00152,-2.47996 h 18.91389 c -0.62841,2.46313 -2.20503,4.68219 -4.57838,6.05122"
           style="fill:#b1b2b4;fill-opacity:1;fill-rule:nonzero;stroke:none;stroke-width:2.80538"
           id="path6262" /><path
           d="m 305.86521,941.72516 c 0.59193,-2.53606 2.18539,-4.83367 4.62046,-6.24198 4.67097,-2.69316 10.64082,-1.08848 13.33119,3.58248 0.49655,0.85564 0.84161,1.75617 1.05201,2.66792 z"
           style="fill:#b1b2b4;fill-opacity:1;fill-rule:nonzero;stroke:none;stroke-width:2.80538"
           id="path6266" /></g></g></g></svg>
